<?xml version="1.0" encoding="iso-8859-1"?>
<!-- Generator: Adobe Illustrator 19.0.0, SVG Export Plug-In . SVG Version: 6.00 Build 0)  -->
<svg version="1.1" id="Layer_1" xmlns="http://www.w3.org/2000/svg" width="200" height="110" xmlns:xlink="http://www.w3.org/1999/xlink" x="0px" y="0px"
	 viewBox="0 0 512.001 512.001" style="enable-background:new 0 0 512.001 512.001;" xml:space="preserve">
<g>
	<circle style="fill:#77AAD4;" cx="96.002" cy="367.999" r="16"/>
	<circle style="fill:#77AAD4;" cx="256.004" cy="96.001" r="16"/>
	<circle style="fill:#77AAD4;" cx="416.005" cy="367.999" r="16"/>
</g>
<circle style="fill:#F9B233;" cx="256.004" cy="256.003" r="96.001"/>
<g>
	<path style="fill:#1D71B8;" d="M336.001,200v2.927C346.108,218.131,352,236.376,352,256.002s-5.894,37.871-15.999,53.074v2.927
		l143.999-32v-47.999L336.001,200z"/>
	<path style="fill:#1D71B8;" d="M160.002,256c0-19.624,5.894-37.871,15.999-53.074v-2.927L32.001,232.001V280l143.999,32v-2.927
		C165.895,293.871,160.002,275.625,160.002,256z"/>
</g>
<circle style="fill:#FFFFFF;" cx="256.004" cy="256.003" r="72.003"/>
<g>
	<rect x="8.002" y="96.001" style="fill:#FAC15C;" width="23.998" height="320.003"/>
	<rect x="480.006" y="96.001" style="fill:#FAC15C;" width="23.998" height="320.003"/>
</g>
<g>
	<rect x="104.005" y="248.187" style="fill:#FFFFFF;" width="16" height="15.63"/>
	<rect x="72.004" y="248.187" style="fill:#FFFFFF;" width="16" height="15.63"/>
	<rect x="423.997" y="248.187" style="fill:#FFFFFF;" width="16" height="15.63"/>
	<rect x="391.997" y="248.187" style="fill:#FFFFFF;" width="16" height="15.63"/>
</g>
<g>
	<path style="fill:#1D1D1B;" d="M256.002,176.185c-44.01,0-79.815,35.805-79.815,79.815s35.805,79.815,79.815,79.815
		s79.815-35.805,79.815-79.815S300.011,176.185,256.002,176.185z M263.817,319.693v-31.877h31.999V256h-15.63v16.185h-48.369V256
		h-15.63v31.815h31.999v31.877c-31.717-3.87-56.37-30.947-56.37-63.692c0-35.392,28.793-64.185,64.185-64.185
		s64.185,28.793,64.185,64.185C320.186,288.746,295.533,315.823,263.817,319.693z"/>
	<path style="fill:#1D1D1B;" d="M496.186,0v88.185h-24v134.073l-134.158-29.812c-17.508-22.546-44.09-37.704-74.212-39.958v-33.996
		c9.303-3.242,16-12.097,16-22.492c0-13.131-10.684-23.814-23.815-23.814S232.186,82.869,232.186,96c0,10.395,6.697,19.25,16,22.492
		v33.996c-30.124,2.254-56.704,17.412-74.212,39.958L39.816,222.258V88.185h-24V0H0.187v512h15.63v-88.185h24V289.743l48.369,10.748
		v45.017c-9.303,3.242-16,12.097-16,22.492c0,13.131,10.684,23.814,23.815,23.814s23.815-10.684,23.815-23.814
		c0-10.395-6.697-19.25-16-22.492v-41.543l70.157,15.59c19.008,24.478,48.708,40.26,82.028,40.26s63.02-15.782,82.028-40.26
		l70.157-15.59v41.543c-9.303,3.242-16,12.097-16,22.492c0,13.131,10.684,23.814,23.815,23.814
		c13.132,0,23.815-10.684,23.815-23.814c0-10.395-6.697-19.25-16-22.492v-45.017l48.369-10.748v134.073h24v88.185h15.63V0H496.186z
		 M24.186,408.186h-8.369V103.815h8.369V408.186z M247.816,96c0-4.513,3.672-8.184,8.185-8.184s8.185,3.671,8.185,8.184
		c0,4.513-3.672,8.185-8.185,8.185S247.816,100.513,247.816,96z M104.186,368.001c0,4.513-3.672,8.184-8.185,8.184
		c-4.513,0-8.185-3.671-8.185-8.184c0-3.923,2.776-7.208,6.466-8.001h3.439C101.41,360.793,104.186,364.077,104.186,368.001z
		 M152.479,263.816c0.989,13.227,4.467,25.773,9.967,37.167L39.816,273.73v-9.916h16.185v-15.63H39.816v-9.916l122.63-27.251
		c-5.5,11.393-8.978,23.939-9.967,37.167h-16.477v15.63h16.477V263.816z M256.002,344.185c-48.626,0-88.185-39.56-88.185-88.185
		s39.559-88.185,88.185-88.185s88.185,39.56,88.185,88.185S304.626,344.185,256.002,344.185z M424.186,368.001
		c0,4.513-3.672,8.184-8.185,8.184s-8.185-3.671-8.185-8.184c0-3.923,2.776-7.208,6.466-8.001h3.439
		C421.41,360.793,424.186,364.077,424.186,368.001z M472.187,248.185h-16.185v15.63h16.185v9.916l-122.631,27.251
		c5.5-11.393,8.978-23.939,9.967-37.167H376v-15.63h-16.477c-0.989-13.227-4.467-25.773-9.967-37.167l122.63,27.251v9.916H472.187z
		 M496.186,408.186h-8.369V103.815h8.369V408.186z"/>
</g>
<g>
</g>
<g>
</g>
<g>
</g>
<g>
</g>
<g>
</g>
<g>
</g>
<g>
</g>
<g>
</g>
<g>
</g>
<g>
</g>
<g>
</g>
<g>
</g>
<g>
</g>
<g>
</g>
<g>
</g>
</svg>
