<?xml version="1.0" encoding="iso-8859-1"?>
<!-- Generator: Adobe Illustrator 19.0.0, SVG Export Plug-In . SVG Version: 6.00 Build 0)  -->
<svg version="1.1" id="Layer_1" xmlns="http://www.w3.org/2000/svg" xmlns:xlink="http://www.w3.org/1999/xlink" x="0px" y="0px"
	 viewBox="0 0 512 512" style="enable-background:new 0 0 512 512;" xml:space="preserve">
<circle style="fill:#FF4D30;" cx="256.003" cy="90.505" r="22.883"/>
<g style="opacity:0.2;">
	<path style="fill:#231F20;" d="M258.606,90.503c0-7.919,4.025-14.897,10.139-19.006c-3.643-2.447-8.027-3.878-12.745-3.878
		c-12.637,0-22.883,10.245-22.883,22.883s10.246,22.883,22.883,22.883c4.718,0,9.102-1.43,12.745-3.878
		C262.63,105.4,258.606,98.423,258.606,90.503z"/>
</g>
<path style="fill:#578CAD;" d="M469.731,356.485v-34.858c0-20.163-16.345-36.509-36.51-36.509H78.78
	c-20.163,0-36.511,16.346-36.511,36.509v34.858L8.022,405.568h34.246h427.462h34.247L469.731,356.485z"/>
<path style="fill:#90C8EC;" d="M105.644,285.118h300.711c-11.896-72.307-74.677-127.472-150.354-127.472
	C180.324,157.646,117.542,212.811,105.644,285.118z"/>
<g>
	<path style="fill:#3A5D74;" d="M290.246,238.903h-68.493c-11.347,0-20.547,9.201-20.547,20.547v25.668h109.587V259.45
		C310.793,248.103,301.595,238.903,290.246,238.903z"/>
	<path style="fill:#3A5D74;" d="M337.183,444.382h23.267c11.35,0,20.548-9.199,20.548-20.547v-18.266H131.001v18.266
		c0,11.348,9.201,20.547,20.548,20.547h158.359"/>
</g>
<g style="opacity:0.2;">
	<path style="fill:#231F20;" d="M68.476,321.627c0-20.163,16.348-36.509,36.511-36.509H78.78c-20.163,0-36.511,16.346-36.511,36.509
		v34.858L8.022,405.568l26.207,6.418l34.246-49.084V321.627z"/>
</g>
<g style="opacity:0.2;">
	<path style="fill:#231F20;" d="M269.103,158.209c-4.319-0.368-8.688-0.563-13.103-0.563c-75.676,0-138.458,55.165-150.357,127.472
		h26.207C143.055,217.03,199.381,164.149,269.103,158.209z"/>
</g>
<g style="opacity:0.2;">
	<path style="fill:#231F20;" d="M247.96,238.903h-26.207c-11.347,0-20.547,9.201-20.547,20.547v25.668h26.207V259.45
		C227.413,248.103,236.612,238.903,247.96,238.903z"/>
</g>
<g style="opacity:0.1;">
	<path style="fill:#231F20;" d="M157.208,423.835v-18.266h-26.207v18.266c0,11.348,9.201,20.547,20.548,20.547h26.207
		C166.408,444.382,157.208,435.183,157.208,423.835z"/>
</g>
<path style="fill:#231F20;" d="M510.557,400.977l-32.803-47.014v-32.336c0-24.554-19.977-44.531-44.532-44.531h-20.207
	c-7.208-34.458-25.749-65.827-52.698-88.92c-26.978-23.118-60.906-36.571-96.292-38.343v-29.485
	c13.163-3.543,22.884-15.576,22.884-29.844c0-17.042-13.865-30.906-30.907-30.906c-17.042,0-30.906,13.864-30.906,30.906
	c0,14.267,9.719,26.301,22.883,29.843v29.485c-35.387,1.774-69.313,15.226-96.292,38.343c-26.95,23.093-45.491,54.462-52.7,88.92
	H78.78c-24.555,0-44.533,19.977-44.533,44.531v32.336L1.444,400.978c-1.711,2.451-1.917,5.65-0.534,8.301
	c1.382,2.651,4.122,4.312,7.112,4.312h114.956v10.243c0,15.754,12.817,28.57,28.571,28.57h158.359c4.432,0,8.022-3.591,8.022-8.022
	s-3.591-8.022-8.022-8.022H151.549c-6.907,0-12.526-5.619-12.526-12.525V413.59h233.953v10.243c0,6.906-5.619,12.525-12.526,12.525
	h-23.267c-4.432,0-8.022,3.591-8.022,8.022s3.591,8.022,8.022,8.022h23.267c15.754,0,28.571-12.816,28.571-28.57V413.59h114.957
	c2.99,0,5.73-1.662,7.112-4.312C512.474,406.629,512.267,403.429,510.557,400.977z M241.14,90.503
	c0-8.194,6.666-14.861,14.861-14.861c8.195,0,14.862,6.666,14.862,14.861s-6.666,14.861-14.862,14.861
	C247.806,105.364,241.14,98.698,241.14,90.503z M256,165.669c67.829,0,125.516,46.315,140.595,111.427h-77.779V259.45
	c0-15.754-12.816-28.57-28.57-28.57h-68.493c-15.754,0-28.57,12.816-28.57,28.57v17.645h-77.779
	C130.485,211.984,188.172,165.669,256,165.669z M302.771,277.096h-93.542V259.45c0-6.906,5.619-12.525,12.525-12.525h68.493
	c6.906,0,12.525,5.619,12.525,12.525V277.096z M78.78,293.141h26.865h95.562h109.587h95.562h26.866
	c15.708,0,28.487,12.778,28.487,28.486v26.836H50.291v-26.836C50.291,305.919,63.071,293.141,78.78,293.141z M380.999,397.545
	H131.001H23.402l23.051-33.039h419.093l23.052,33.039H380.999z"/>
<g>
</g>
<g>
</g>
<g>
</g>
<g>
</g>
<g>
</g>
<g>
</g>
<g>
</g>
<g>
</g>
<g>
</g>
<g>
</g>
<g>
</g>
<g>
</g>
<g>
</g>
<g>
</g>
<g>
</g>
</svg>
