<?xml version="1.0" encoding="UTF-8"?>
<svg xmlns="http://www.w3.org/2000/svg" xmlns:xlink="http://www.w3.org/1999/xlink" width="50px" height="40px" viewBox="0 0 50 40" version="1.1">
<defs>
<filter id="alpha" filterUnits="objectBoundingBox" x="0%" y="0%" width="100%" height="100%">
  <feColorMatrix type="matrix" in="SourceGraphic" values="0 0 0 0 1 0 0 0 0 1 0 0 0 0 1 0 0 0 1 0"/>
</filter>
<mask id="mask0">
  <g filter="url(#alpha)">
<rect x="0" y="0" width="50" height="40" style="fill:rgb(0%,0%,0%);fill-opacity:0.2;stroke:none;"/>
  </g>
</mask>
<clipPath id="clip1">
  <rect x="0" y="0" width="50" height="40"/>
</clipPath>
<g id="surface5" clip-path="url(#clip1)">
<path style=" stroke:none;fill-rule:nonzero;fill:rgb(13.72549%,12.156863%,12.54902%);fill-opacity:1;" d="M 25.253906 7.070312 C 25.253906 6.453125 25.648438 5.90625 26.246094 5.585938 C 25.890625 5.394531 25.460938 5.28125 25 5.28125 C 23.765625 5.28125 22.765625 6.082031 22.765625 7.070312 C 22.765625 8.058594 23.765625 8.859375 25 8.859375 C 25.460938 8.859375 25.890625 8.746094 26.246094 8.554688 C 25.648438 8.234375 25.253906 7.6875 25.253906 7.070312 Z M 25.253906 7.070312 "/>
</g>
<mask id="mask1">
  <g filter="url(#alpha)">
<rect x="0" y="0" width="50" height="40" style="fill:rgb(0%,0%,0%);fill-opacity:0.2;stroke:none;"/>
  </g>
</mask>
<clipPath id="clip2">
  <rect x="0" y="0" width="50" height="40"/>
</clipPath>
<g id="surface8" clip-path="url(#clip2)">
<path style=" stroke:none;fill-rule:nonzero;fill:rgb(13.72549%,12.156863%,12.54902%);fill-opacity:1;" d="M 6.6875 25.128906 C 6.6875 23.550781 8.285156 22.273438 10.253906 22.273438 L 7.695312 22.273438 C 5.722656 22.273438 4.128906 23.550781 4.128906 25.128906 L 4.128906 27.851562 L 0.785156 31.683594 L 3.34375 32.1875 L 6.6875 28.351562 Z M 6.6875 25.128906 "/>
</g>
<mask id="mask2">
  <g filter="url(#alpha)">
<rect x="0" y="0" width="50" height="40" style="fill:rgb(0%,0%,0%);fill-opacity:0.2;stroke:none;"/>
  </g>
</mask>
<clipPath id="clip3">
  <rect x="0" y="0" width="50" height="40"/>
</clipPath>
<g id="surface11" clip-path="url(#clip3)">
<path style=" stroke:none;fill-rule:nonzero;fill:rgb(13.72549%,12.156863%,12.54902%);fill-opacity:1;" d="M 26.28125 12.359375 C 25.859375 12.332031 25.429688 12.316406 25 12.316406 C 17.609375 12.316406 11.480469 16.625 10.316406 22.273438 L 12.875 22.273438 C 13.96875 16.957031 19.472656 12.824219 26.28125 12.359375 Z M 26.28125 12.359375 "/>
</g>
<mask id="mask3">
  <g filter="url(#alpha)">
<rect x="0" y="0" width="50" height="40" style="fill:rgb(0%,0%,0%);fill-opacity:0.2;stroke:none;"/>
  </g>
</mask>
<clipPath id="clip4">
  <rect x="0" y="0" width="50" height="40"/>
</clipPath>
<g id="surface14" clip-path="url(#clip4)">
<path style=" stroke:none;fill-rule:nonzero;fill:rgb(13.72549%,12.156863%,12.54902%);fill-opacity:1;" d="M 24.214844 18.664062 L 21.65625 18.664062 C 20.546875 18.664062 19.648438 19.382812 19.648438 20.269531 L 19.648438 22.273438 L 22.207031 22.273438 L 22.207031 20.269531 C 22.207031 19.382812 23.105469 18.664062 24.214844 18.664062 Z M 24.214844 18.664062 "/>
</g>
<mask id="mask4">
  <g filter="url(#alpha)">
<rect x="0" y="0" width="50" height="40" style="fill:rgb(0%,0%,0%);fill-opacity:0.101961;stroke:none;"/>
  </g>
</mask>
<clipPath id="clip5">
  <rect x="0" y="0" width="50" height="40"/>
</clipPath>
<g id="surface17" clip-path="url(#clip5)">
<path style=" stroke:none;fill-rule:nonzero;fill:rgb(13.72549%,12.156863%,12.54902%);fill-opacity:1;" d="M 15.351562 33.113281 L 15.351562 31.683594 L 12.792969 31.683594 L 12.792969 33.113281 C 12.792969 34 13.691406 34.71875 14.800781 34.71875 L 17.359375 34.71875 C 16.25 34.71875 15.351562 34 15.351562 33.113281 Z M 15.351562 33.113281 "/>
</g>
</defs>
<g id="surface1">
<path style=" stroke:none;fill-rule:nonzero;fill:rgb(100%,30.196078%,18.823529%);fill-opacity:1;" d="M 27.234375 7.070312 C 27.234375 8.058594 26.234375 8.859375 25 8.859375 C 23.765625 8.859375 22.765625 8.058594 22.765625 7.070312 C 22.765625 6.082031 23.765625 5.28125 25 5.28125 C 26.234375 5.28125 27.234375 6.082031 27.234375 7.070312 Z M 27.234375 7.070312 "/>
<use xlink:href="#surface5" mask="url(#mask0)"/>
<path style=" stroke:none;fill-rule:nonzero;fill:rgb(34.117647%,54.901961%,67.843137%);fill-opacity:1;" d="M 45.871094 27.851562 L 45.871094 25.128906 C 45.871094 23.550781 44.277344 22.273438 42.308594 22.273438 L 7.695312 22.273438 C 5.722656 22.273438 4.128906 23.550781 4.128906 25.128906 L 4.128906 27.851562 L 0.785156 31.683594 L 49.214844 31.683594 Z M 45.871094 27.851562 "/>
<path style=" stroke:none;fill-rule:nonzero;fill:rgb(56.470588%,78.431373%,92.54902%);fill-opacity:1;" d="M 10.316406 22.273438 L 39.683594 22.273438 C 38.519531 16.625 32.390625 12.316406 25 12.316406 C 17.609375 12.316406 11.480469 16.625 10.316406 22.273438 Z M 10.316406 22.273438 "/>
<path style=" stroke:none;fill-rule:nonzero;fill:rgb(22.745098%,36.470588%,45.490196%);fill-opacity:1;" d="M 28.34375 18.664062 L 21.65625 18.664062 C 20.546875 18.664062 19.648438 19.382812 19.648438 20.269531 L 19.648438 22.273438 L 30.351562 22.273438 L 30.351562 20.269531 C 30.351562 19.382812 29.453125 18.664062 28.34375 18.664062 Z M 28.34375 18.664062 "/>
<path style=" stroke:none;fill-rule:nonzero;fill:rgb(22.745098%,36.470588%,45.490196%);fill-opacity:1;" d="M 32.929688 34.71875 L 35.199219 34.71875 C 36.308594 34.71875 37.207031 34 37.207031 33.113281 L 37.207031 31.683594 L 12.792969 31.683594 L 12.792969 33.113281 C 12.792969 34 13.691406 34.71875 14.800781 34.71875 L 30.265625 34.71875 "/>
<use xlink:href="#surface8" mask="url(#mask1)"/>
<use xlink:href="#surface11" mask="url(#mask2)"/>
<use xlink:href="#surface14" mask="url(#mask3)"/>
<use xlink:href="#surface17" mask="url(#mask4)"/>
<path style=" stroke:none;fill-rule:nonzero;fill:rgb(13.72549%,12.156863%,12.54902%);fill-opacity:1;" d="M 49.859375 31.328125 L 46.65625 27.652344 L 46.65625 25.128906 C 46.65625 23.207031 44.703125 21.648438 42.308594 21.648438 L 40.332031 21.648438 C 39.628906 18.957031 37.820312 16.503906 35.1875 14.703125 C 32.550781 12.894531 29.238281 11.84375 25.785156 11.707031 L 25.785156 9.402344 C 27.070312 9.125 28.019531 8.183594 28.019531 7.070312 C 28.019531 5.738281 26.664062 4.65625 25 4.65625 C 23.335938 4.65625 21.980469 5.738281 21.980469 7.070312 C 21.980469 8.183594 22.929688 9.125 24.214844 9.402344 L 24.214844 11.707031 C 20.761719 11.84375 17.449219 12.894531 14.8125 14.699219 C 12.179688 16.503906 10.371094 18.957031 9.667969 21.648438 L 7.695312 21.648438 C 5.296875 21.648438 3.34375 23.207031 3.34375 25.128906 L 3.34375 27.652344 L 0.140625 31.328125 C -0.0273438 31.519531 -0.046875 31.769531 0.0898438 31.976562 C 0.222656 32.183594 0.492188 32.3125 0.785156 32.3125 L 12.007812 32.3125 L 12.007812 33.113281 C 12.007812 34.34375 13.261719 35.34375 14.800781 35.34375 L 30.265625 35.34375 C 30.699219 35.34375 31.046875 35.0625 31.046875 34.71875 C 31.046875 34.371094 30.695312 34.089844 30.265625 34.089844 L 14.800781 34.089844 C 14.125 34.089844 13.578125 33.652344 13.578125 33.113281 L 13.578125 32.3125 L 36.421875 32.3125 L 36.421875 33.113281 C 36.421875 33.652344 35.875 34.089844 35.199219 34.089844 L 32.929688 34.089844 C 32.496094 34.089844 32.144531 34.371094 32.144531 34.71875 C 32.144531 35.0625 32.496094 35.34375 32.929688 35.34375 L 35.199219 35.34375 C 36.738281 35.34375 37.992188 34.34375 37.992188 33.113281 L 37.992188 32.3125 L 49.214844 32.3125 C 49.507812 32.3125 49.777344 32.183594 49.910156 31.976562 C 50.046875 31.769531 50.027344 31.519531 49.859375 31.328125 Z M 23.546875 7.070312 C 23.546875 6.429688 24.199219 5.910156 25 5.910156 C 25.800781 5.910156 26.453125 6.429688 26.453125 7.070312 C 26.453125 7.710938 25.800781 8.230469 25 8.230469 C 24.199219 8.230469 23.546875 7.710938 23.546875 7.070312 Z M 25 12.941406 C 31.625 12.941406 37.257812 16.5625 38.730469 21.648438 L 31.132812 21.648438 L 31.132812 20.269531 C 31.132812 19.039062 29.882812 18.039062 28.34375 18.039062 L 21.65625 18.039062 C 20.117188 18.039062 18.867188 19.039062 18.867188 20.269531 L 18.867188 21.648438 L 11.269531 21.648438 C 12.742188 16.5625 18.375 12.941406 25 12.941406 Z M 29.566406 21.648438 L 20.433594 21.648438 L 20.433594 20.269531 C 20.433594 19.730469 20.980469 19.289062 21.65625 19.289062 L 28.34375 19.289062 C 29.019531 19.289062 29.566406 19.730469 29.566406 20.269531 Z M 7.695312 22.902344 L 42.308594 22.902344 C 43.839844 22.902344 45.089844 23.898438 45.089844 25.128906 L 45.089844 27.222656 L 4.910156 27.222656 L 4.910156 25.128906 C 4.910156 23.898438 6.160156 22.902344 7.695312 22.902344 Z M 37.207031 31.058594 L 2.285156 31.058594 L 4.535156 28.476562 L 45.464844 28.476562 L 47.714844 31.058594 Z M 37.207031 31.058594 "/>
</g>
</svg>
